HIERARCHY
ROOT Hips
{
	OFFSET 37.628601 -2.093276 98.784401
	CHANNELS 6 Xposition Yposition Zposition Xrotation Yrotation Zrotation
	JOINT spine
	{
		OFFSET 0.000000 -0.477352 8.301041
		CHANNELS 3 Xrotation Yrotation Zrotation
		JOINT spine1
		{
			OFFSET 0.000000 -0.000002 10.456497
			CHANNELS 3 Xrotation Yrotation Zrotation
			JOINT spine2
			{
				OFFSET 0.000000 -0.000002 10.019203
				CHANNELS 3 Xrotation Yrotation Zrotation
				JOINT Neck
				{
					OFFSET 0.000000 -1.226414 25.723495
					CHANNELS 3 Xrotation Yrotation Zrotation
					JOINT Head
					{
						OFFSET 0.000000 -0.000001 7.771744
						CHANNELS 3 Xrotation Yrotation Zrotation
						End Site
						{
							OFFSET 0.000000 6.203937 18.811996
						}
					}
				}
				JOINT RightShoulder
				{
					OFFSET -4.218800 0.587437 10.819992
					CHANNELS 3 Xrotation Yrotation Zrotation
					JOINT RightArm
					{
						OFFSET 0.000000 -0.000002 14.191406
						CHANNELS 3 Xrotation Yrotation Zrotation
						JOINT RightArmRoll
						{
							OFFSET 0.000000 -0.000001 7.164093
							CHANNELS 3 Xrotation Yrotation Zrotation
							JOINT RightForeArm
							{
								OFFSET 0.000000 -0.000003 20.866501
								CHANNELS 3 Xrotation Yrotation Zrotation
								JOINT RightForeArmRoll
								{
									OFFSET 0.000000 -0.000001 8.039215
									CHANNELS 3 Xrotation Yrotation Zrotation
									JOINT RightHand
									{
										OFFSET 0.000000 -0.000003 16.132996
										CHANNELS 3 Xrotation Yrotation Zrotation
										End Site
										{
											OFFSET 0.000000 0.000000 0.100006
										}
									}
								}
							}
						}
					}
				}
				JOINT LeftShoulder
				{
					OFFSET 4.218800 0.587437 10.819992
					CHANNELS 3 Xrotation Yrotation Zrotation
					JOINT LeftArm
					{
						OFFSET 0.000000 -0.000002 14.191406
						CHANNELS 3 Xrotation Yrotation Zrotation
						JOINT LeftArmRoll
						{
							OFFSET 0.000000 -0.000001 7.164078
							CHANNELS 3 Xrotation Yrotation Zrotation
							JOINT LeftForeArm
							{
								OFFSET 0.000000 -0.000003 20.866501
								CHANNELS 3 Xrotation Yrotation Zrotation
								JOINT LeftForeArmRoll
								{
									OFFSET 0.000000 -0.000001 8.039215
									CHANNELS 3 Xrotation Yrotation Zrotation
									JOINT LeftHand
									{
										OFFSET 0.000000 -0.000003 16.132996
										CHANNELS 3 Xrotation Yrotation Zrotation
										End Site
										{
											OFFSET 0.000000 0.000000 0.100006
										}
									}
								}
							}
						}
					}
				}
			}
		}
	}
	JOINT RightUpLeg
	{
		OFFSET -7.357731 1.131820 -1.349213
		CHANNELS 3 Xrotation Yrotation Zrotation
		JOINT RightUpLegRoll
		{
			OFFSET 0.000000 -0.000003 18.916801
			CHANNELS 3 Xrotation Yrotation Zrotation
			JOINT RightLeg
			{
				OFFSET 0.000000 0.000004 -23.425598
				CHANNELS 3 Xrotation Yrotation Zrotation
				JOINT RightLegRoll
				{
					OFFSET 0.000000 -0.000004 23.502304
					CHANNELS 3 Xrotation Yrotation Zrotation
					JOINT RightFoot
					{
						OFFSET 0.000000 -0.000003 19.561707
						CHANNELS 3 Xrotation Yrotation Zrotation
						JOINT RightToeBase
						{
							OFFSET 0.000000 -0.000003 16.352600
							CHANNELS 3 Xrotation Yrotation Zrotation
							End Site
							{
								OFFSET 0.006931 0.912836 7.919434
							}
						}
					}
				}
			}
		}
	}
	JOINT LeftUpLeg
	{
		OFFSET 7.357731 1.131820 -1.349213
		CHANNELS 3 Xrotation Yrotation Zrotation
		JOINT LeftUpLegRoll
		{
			OFFSET 0.000000 -0.000003 18.916901
			CHANNELS 3 Xrotation Yrotation Zrotation
			JOINT LeftLeg
			{
				OFFSET 0.000000 -0.000004 23.425499
				CHANNELS 3 Xrotation Yrotation Zrotation
				JOINT LeftLegRoll
				{
					OFFSET 0.000000 -0.000004 23.719498
					CHANNELS 3 Xrotation Yrotation Zrotation
					JOINT LeftFoot
					{
						OFFSET 0.000000 -0.000003 19.344406
						CHANNELS 3 Xrotation Yrotation Zrotation
						JOINT LeftToeBase
						{
							OFFSET 0.000000 -0.000003 16.352600
							CHANNELS 3 Xrotation Yrotation Zrotation
							End Site
							{
								OFFSET -0.031063 0.912836 7.919434
							}
						}
					}
				}
			}
		}
	}
}
MOTION
Frames: 6
Frame Time: 0.041667
37.271202 -1.667015 98.806511 -3.581316 -0.829430 1.618800 -1.232349 -0.019753 0.112812 1.538160 -0.040614 0.212815 3.183240 -0.038151 0.213370 20.391596 0.350855 -1.109378 -5.520771 0.155021 -1.109397 -2.958564 -76.288405 -5.191329 -81.018522 -110.184127 -58.284101 -0.000003 -0.000022 -0.000003 0.243251 -13.255488 -0.086377 -0.000002 0.000016 -3.026640 -5.000221 -7.998752 0.000174 9.710334 67.505321 -9.783210 -56.136840 106.024726 32.979695 0.000000 -0.000002 -0.000007 0.040856 5.795900 0.819171 -0.000001 -0.000015 3.037481 -5.000198 7.999279 -0.000096 1.009211 -176.029616 1.332505 179.999991 -0.000005 -1.066994 175.295835 -4.337397 -0.569573 -0.000005 -0.000002 0.046696 68.893475 6.885143 2.173501 25.456856 -7.355621 -0.000002 0.676513 175.292324 0.291669 -0.000005 -0.000005 -1.168230 -9.296808 3.677182 0.987482 -0.000002 0.000001 -0.120640 68.603069 -6.920874 -2.077257 25.456959 7.355613 -0.000000 
37.274204 -1.667465 98.809502 -3.581364 -0.828206 1.619236 -1.233309 -0.020133 0.112751 1.536240 -0.041348 0.211629 3.181320 -0.038878 0.212180 20.414373 0.341216 -1.110717 -5.546937 0.174631 -1.111881 -2.951294 -76.291198 -5.183768 -80.966565 -110.147503 -58.340935 -0.000001 -0.000021 -0.000001 0.371210 -13.339634 -0.058066 -0.000003 0.000015 -3.025092 -5.000219 -7.998753 0.000171 9.698012 67.505860 -9.769466 -56.044233 105.981081 32.852339 0.000003 -0.000004 -0.000007 0.029752 5.774531 0.809575 0.000000 -0.000015 3.035491 -5.000195 7.999280 -0.000096 1.008800 -176.029616 1.336126 179.999991 -0.000005 -1.066993 175.293568 -4.342367 -0.570154 -0.000005 -0.000002 0.046696 68.893256 6.885130 2.173712 25.456853 -7.355622 -0.000002 0.672872 175.292324 0.293394 -0.000005 -0.000005 -1.168350 -9.305392 3.674744 0.987691 -0.000002 0.000001 -0.120715 68.606327 -6.920838 -2.077246 25.456957 7.355613 -0.000000 
37.275505 -1.659297 98.805809 -3.581081 -0.827067 1.619831 -1.234351 -0.020511 0.112659 1.534150 -0.042126 0.210285 3.179231 -0.039649 0.210834 20.437755 0.331389 -1.111889 -5.573684 0.195081 -1.114233 -2.943276 -76.293999 -5.175403 -80.912743 -110.109766 -58.395877 -0.000004 -0.000022 -0.000002 0.493114 -13.424723 -0.029021 -0.000004 0.000015 -3.023471 -5.000220 -7.998753 0.000173 9.684862 67.506052 -9.754849 -55.946896 105.937682 32.718761 0.000001 -0.000003 -0.000007 0.013227 5.752139 0.799888 -0.000001 -0.000016 3.033451 -5.000197 7.999280 -0.000094 1.007928 -176.027608 1.340651 179.999991 -0.000005 -1.066994 175.291204 -4.348328 -0.569825 -0.000004 -0.000002 0.046696 68.892963 6.885183 2.173740 25.456856 -7.355620 -0.000003 0.667835 175.291314 0.295395 -0.000004 -0.000005 -1.168460 -9.315978 3.672195 0.987999 -0.000002 0.000001 -0.120828 68.610432 -6.920822 -2.077185 25.456957 7.355615 -0.000002 
37.274803 -1.667097 98.812294 -3.580574 -0.825989 1.620526 -1.235456 -0.020887 0.112546 1.531940 -0.042933 0.208833 3.177020 -0.040451 0.209378 20.461437 0.321432 -1.112942 -5.600849 0.216120 -1.116486 -2.934714 -76.296703 -5.166456 -80.857439 -110.071217 -58.449433 -0.000002 -0.000022 -0.000003 0.610806 -13.510462 0.000642 -0.000003 0.000015 -3.021811 -5.000219 -7.998753 0.000172 9.671189 67.506072 -9.739676 -55.846451 105.894331 32.581232 0.000001 -0.000003 -0.000006 -0.007089 5.729051 0.790129 -0.000002 -0.000015 3.031350 -5.000198 7.999282 -0.000094 1.006730 -176.026611 1.345766 179.999991 -0.000005 -1.066994 175.288814 -4.355298 -0.569570 -0.000005 -0.000002 0.046696 68.892751 6.885169 2.174052 25.456853 -7.355622 -0.000002 0.661821 175.291314 0.297611 -0.000005 -0.000005 -1.168570 -9.327965 3.669582 0.988378 -0.000001 0.000001 -0.120967 68.615343 -6.920716 -2.077259 25.456957 7.355614 -0.000001 
37.272205 -1.677348 98.814499 -3.579929 -0.824946 1.621291 -1.236600 -0.021262 0.112422 1.529660 -0.043758 0.207318 3.174740 -0.041271 0.207860 20.485414 0.311401 -1.113924 -5.628248 0.237497 -1.118675 -2.925873 -76.299510 -5.157202 -80.801363 -110.032107 -58.502223 -0.000003 -0.000022 -0.000001 0.726131 -13.596549 0.030801 -0.000002 0.000015 -3.020139 -5.000220 -7.998752 0.000173 9.657166 67.506004 -9.724147 -55.743366 105.851075 32.440424 0.000002 -0.000003 -0.000007 -0.029568 5.705561 0.780324 -0.000001 -0.000014 3.029233 -5.000197 7.999280 -0.000094 1.005335 -176.025614 1.351237 179.999991 -0.000005 -1.066994 175.286382 -4.362254 -0.569330 -0.000004 -0.000002 0.046696 68.892539 6.885157 2.174263 25.456853 -7.355622 -0.000002 0.655243 175.291300 0.299942 -0.000005 -0.000005 -1.168670 -9.340752 3.666931 0.988796 -0.000001 0.000001 -0.121121 68.620588 -6.920632 -2.077213 25.456957 7.355613 -0.000000 
37.276604 -1.680514 98.808304 -3.579263 -0.823910 1.622075 -1.237740 -0.021638 0.112295 1.527371 -0.044587 0.205787 3.172451 -0.042094 0.206326 20.509393 0.301349 -1.114886 -5.655719 0.258960 -1.120835 -2.916930 -76.302215 -5.147843 -80.745445 -109.992690 -58.555232 -0.000002 -0.000022 -0.000002 0.840927 -13.682682 0.061352 -0.000004 0.000015 -3.018449 -5.000219 -7.998756 0.000173 9.643076 67.505840 -9.708534 -55.639394 105.808052 32.298612 0.000001 -0.000003 -0.000007 -0.052589 5.681981 0.770488 -0.000001 -0.000015 3.027111 -5.000198 7.999281 -0.000095 1.003905 -176.023619 1.356802 179.999991 -0.000005 -1.066993 175.283937 -4.370216 -0.570174 -0.000005 -0.000002 0.046696 68.892327 6.885182 2.174379 25.456856 -7.355621 -0.000002 0.648526 175.291300 0.302302 -0.000004 -0.000004 -1.168780 -9.353742 3.664259 0.989221 -0.000002 0.000001 -0.121278 68.625848 -6.920583 -2.077176 25.456955 7.355614 -0.000001 
